# xmcd CD database file
# Copyright (C) 1993-1998 Ti Kan
#
# Track frame offsets:
#	150
#	9493
#	21553
#	26535
#	37458
#	47345
#	56805
#	64700
#	75555
#	85440
#	102263
#	111713
#
# Disc length: 1625 seconds
#
# Revision: 0
# Processed by: cddbd v1.4b41PL1 Copyright (c) Steve Scherf et al.
# Submitted via: CDmax 1.5
#
DISCID=a306570c
DTITLE=Coutry For Kids Vol. 2 - I Like Bluegrass Songs
DYEAR=1900
DGENRE=
TTITLE0=Georgia Pineywoods
TTITLE1=Grandfather's Clock
TTITLE2=Chicken Reel
TTITLE3=Tennessee Hound Dog
TTITLE4=Ballad of Jed Clampett
TTITLE5=Dueling Banjos
TTITLE6=She Was Always Chewing Gum
TTITLE7=The Eighth of January
TTITLE8=Muddy Bottom
TTITLE9=Muleskinner Blues
TTITLE10=Old Rattler
TTITLE11=Boll Weevil
EXTD=
EXTT0=
EXTT1=
EXTT2=
EXTT3=
EXTT4=
EXTT5=
EXTT6=
EXTT7=
EXTT8=
EXTT9=
EXTT10=
EXTT11=
PLAYORDER=
